<?xml version="1.0" encoding="UTF-8" standalone="no"?>
<!-- Generator: Adobe Illustrator 16.0.0, SVG Export Plug-In . SVG Version: 6.00 Build 0)  -->

<svg
   xmlns:dc="http://purl.org/dc/elements/1.1/"
   xmlns:cc="http://creativecommons.org/ns#"
   xmlns:rdf="http://www.w3.org/1999/02/22-rdf-syntax-ns#"
   xmlns:svg="http://www.w3.org/2000/svg"
   xmlns="http://www.w3.org/2000/svg"
   xmlns:sodipodi="http://sodipodi.sourceforge.net/DTD/sodipodi-0.dtd"
   xmlns:inkscape="http://www.inkscape.org/namespaces/inkscape"
   version="1.1"
   id="Capa_1"
   x="0px"
   y="0px"
   width="40"
   height="40"
   viewBox="0 0 40 40"
   xml:space="preserve"
   inkscape:version="0.48.4 r9939"
   sodipodi:docname="man-sprinting.svg"><metadata
     id="metadata3030"><rdf:RDF><cc:Work
         rdf:about=""><dc:format>image/svg+xml</dc:format><dc:type
           rdf:resource="http://purl.org/dc/dcmitype/StillImage" /></cc:Work></rdf:RDF></metadata><defs
     id="defs3028" /><sodipodi:namedview
     pagecolor="#ffffff"
     bordercolor="#666666"
     borderopacity="1"
     objecttolerance="10"
     gridtolerance="10"
     guidetolerance="10"
     inkscape:pageopacity="0"
     inkscape:pageshadow="2"
     inkscape:window-width="960"
     inkscape:window-height="1028"
     id="namedview3026"
     showgrid="false"
     inkscape:showpageshadow="false"
     fit-margin-top="0"
     fit-margin-left="0"
     fit-margin-right="0"
     fit-margin-bottom="0"
     inkscape:zoom="3.3540275"
     inkscape:cx="-17.355268"
     inkscape:cy="-0.76857581"
     inkscape:window-x="960"
     inkscape:window-y="24"
     inkscape:window-maximized="0"
     inkscape:current-layer="Capa_1" /><g
     id="g4368"
     transform="matrix(1,0,0,1.0378599,-0.59629804,-1.376119)"><path
       style="fill:#f4f4f4;fill-opacity:1"
       sodipodi:nodetypes="ccscccccccc"
       inkscape:connector-curvature="0"
       id="path2990"
       d="m 5.0005845,24.962111 c -0.927527,0.116035 -1.693555,0.729971 -1.597504,1.730028 0.08443,0.881225 0.742341,1.542101 1.532426,1.605194 0.104881,0.0083 0.214159,0.0057 0.320847,-0.0086 l 8.0511725,-1.83108 c 0.401679,-0.05157 0.773174,-0.253833 1.052036,-0.573752 l 4.341364,-4.629192 -1.995455,0.558314 c -0.702168,-0.459097 0.58929,-3.200912 0.484789,-4.095146 l -4.852747,5.571343 z" /><circle
       style="fill:#f4f4f4;fill-opacity:1"
       transform="matrix(0.03714629,0,0,0.03790034,0.42793234,3.1151484)"
       d="m 849.66801,151.106 c 0,58.21082 -47.18919,105.4 -105.4,105.4 -58.21082,0 -105.40001,-47.18918 -105.40001,-105.4 0,-58.210811 47.18919,-105.399999 105.40001,-105.399999 58.21081,0 105.4,47.189188 105.4,105.399999 z"
       sodipodi:ry="105.4"
       sodipodi:rx="105.4"
       sodipodi:cy="151.106"
       sodipodi:cx="744.26801"
       id="circle2992"
       r="105.4"
       cy="151.106"
       cx="744.26801" /><path
       style="fill:#f4f4f4;fill-opacity:1"
       sodipodi:nodetypes="cscccsccccccccccccccccccccscccsccc"
       inkscape:connector-curvature="0"
       id="path2994"
       d="M 20.719144,6.8725645 C 20.329858,6.4405006 19.968664,6.269949 19.572365,6.269949 c -0.143826,0 -0.287581,0.02274 -0.441927,0.060641 l -6.344274,1.6259248 c -0.876769,0.223612 -1.41686,1.1749107 -1.209941,2.1186292 0.17886,0.811067 0.845205,1.356832 1.585199,1.356832 0.126291,0 0.252511,-0.01516 0.3788,-0.04927 l 5.40441,-1.3833617 c 0.350708,0.4206937 2.107755,2.4786827 2.426899,2.8425257 l 0,0 c -2.23401,2.584803 -4.468019,5.165817 -6.702064,7.750621 -0.03507,0.04172 -0.0666,0.08338 -0.0982,0.12507 -0.652317,0.898238 -0.452378,2.308132 0.529603,2.842527 l 1.188866,0.655713 5.660427,3.122951 -3.55618,6.227026 c -0.487449,0.856586 -0.241953,1.978398 0.550612,2.509003 0.277059,0.185712 0.582175,0.272883 0.883784,0.272883 l 0,0 c 0.56464,0 1.118724,-0.306993 1.437903,-0.864128 l 4.517119,-7.909802 c 0.249002,-0.435854 0.315637,-0.962669 0.185875,-1.451583 -0.129762,-0.492705 -0.441892,-0.902028 -0.866249,-1.13322 l -4.639866,-2.550694 4.878383,-5.639571 3.682433,3.373131 c 0.305081,0.280424 0.680339,0.416903 1.052124,0.416903 0.399772,0 0.799614,-0.159181 1.111709,-0.469964 l 5.649088,-3.307504 c 0.659366,-0.663256 0.697908,-1.777526 0.08417,-2.490052 -0.322652,-0.371423 -0.75753,-0.560926 -1.192407,-0.560926 -0.396301,0 -0.796108,0.155392 -1.108238,0.469965 l -4.586442,2.231134 c -0.0035,0.0038 -7.929542,-8.0538231 -9.314837,-9.5887885 z" /></g><g
     id="g2996"
     transform="translate(4.0272116e-4,-862.40601)" /><g
     id="g2998"
     transform="translate(4.0272116e-4,-862.40601)" /><g
     id="g3000"
     transform="translate(4.0272116e-4,-862.40601)" /><g
     id="g3002"
     transform="translate(4.0272116e-4,-862.40601)" /><g
     id="g3004"
     transform="translate(4.0272116e-4,-862.40601)" /><g
     id="g3006"
     transform="translate(4.0272116e-4,-862.40601)" /><g
     id="g3008"
     transform="translate(4.0272116e-4,-862.40601)" /><g
     id="g3010"
     transform="translate(4.0272116e-4,-862.40601)" /><g
     id="g3012"
     transform="translate(4.0272116e-4,-862.40601)" /><g
     id="g3014"
     transform="translate(4.0272116e-4,-862.40601)" /><g
     id="g3016"
     transform="translate(4.0272116e-4,-862.40601)" /><g
     id="g3018"
     transform="translate(4.0272116e-4,-862.40601)" /><g
     id="g3020"
     transform="translate(4.0272116e-4,-862.40601)" /><g
     id="g3022"
     transform="translate(4.0272116e-4,-862.40601)" /><g
     id="g3024"
     transform="translate(4.0272116e-4,-862.40601)" /></svg>