<?xml version="1.0" encoding="UTF-8" standalone="no"?>
<svg
   xmlns:dc="http://purl.org/dc/elements/1.1/"
   xmlns:cc="http://creativecommons.org/ns#"
   xmlns:rdf="http://www.w3.org/1999/02/22-rdf-syntax-ns#"
   xmlns:svg="http://www.w3.org/2000/svg"
   xmlns="http://www.w3.org/2000/svg"
   xmlns:sodipodi="http://sodipodi.sourceforge.net/DTD/sodipodi-0.dtd"
   xmlns:inkscape="http://www.inkscape.org/namespaces/inkscape"
   viewBox="0 0 22 22"
   width="22"
   height="22"
   version="1.1"
   id="svg26"
   sodipodi:docname="indicatortest.svg"
   inkscape:version="0.92.5 (2060ec1f9f, 2020-04-08)">
  <sodipodi:namedview
     pagecolor="#ffffff"
     bordercolor="#666666"
     borderopacity="1"
     objecttolerance="10"
     gridtolerance="10"
     guidetolerance="10"
     inkscape:pageopacity="0"
     inkscape:pageshadow="2"
     inkscape:window-width="1920"
     inkscape:window-height="1053"
     id="namedview13"
     showgrid="false"
     inkscape:zoom="32"
     inkscape:cx="10.079437"
     inkscape:cy="10.512162"
     inkscape:window-x="0"
     inkscape:window-y="27"
     inkscape:window-maximized="1"
     inkscape:current-layer="svg26" />
  <metadata
     id="metadata32">
    <rdf:RDF>
      <cc:Work
         rdf:about="">
        <dc:format>image/svg+xml</dc:format>
        <dc:type
           rdf:resource="http://purl.org/dc/dcmitype/StillImage" />
        <dc:title />
      </cc:Work>
    </rdf:RDF>
  </metadata>
  <defs
     id="defs30" />
  <g
     aria-label="T"
     style="font-style:normal;font-weight:normal;font-size:40px;line-height:1.25;font-family:sans-serif;letter-spacing:0px;word-spacing:0px;fill:#000000;fill-opacity:1;stroke:none"
     id="text837"
     transform="matrix(0.81,0,0,0.81,-0.01753769,-0.00922129)">
    <path
       d="M 0.01946787,0.01202497 H 7.1861348 V 1.52765 H 4.6080097 V 7.7880669 H 2.6028013 V 1.52765 H 0.01946787 Z"
       style="font-style:normal;font-variant:normal;font-weight:bold;font-stretch:normal;font-size:10.66666698px;font-family:sans-serif;-inkscape-font-specification:'sans-serif, Bold';font-variant-ligatures:normal;font-variant-caps:normal;font-variant-numeric:normal;font-feature-settings:normal;text-align:start;writing-mode:lr-tb;text-anchor:start;fill:#0000ff;fill-opacity:1"
       id="path910"
       inkscape:connector-curvature="0" />
  </g>
  <g
     aria-label="T"
     style="font-style:normal;font-weight:normal;font-size:40px;line-height:1.25;font-family:sans-serif;letter-spacing:0px;word-spacing:0px;fill:#000000;fill-opacity:1;stroke:none"
     id="text837-8"
     transform="matrix(0.81,0,0,0.81,4.2000712,4.2020037)">
    <path
       d="m 14.808868,14.196969 h 7.166667 v 1.515625 H 19.39741 v 6.260417 h -2.005209 v -6.260417 h -2.583333 z"
       style="font-style:normal;font-variant:normal;font-weight:bold;font-stretch:normal;font-size:10.66666698px;font-family:sans-serif;-inkscape-font-specification:'sans-serif, Bold';font-variant-ligatures:normal;font-variant-caps:normal;font-variant-numeric:normal;font-feature-settings:normal;text-align:start;writing-mode:lr-tb;text-anchor:start;fill:#0000ff;fill-opacity:1"
       id="path907"
       inkscape:connector-curvature="0" />
  </g>
  <g
     aria-label="E"
     style="font-style:normal;font-weight:normal;font-size:40px;line-height:1.25;font-family:sans-serif;letter-spacing:0px;word-spacing:0px;fill:#000000;fill-opacity:1;stroke:none"
     id="text837-8-9"
     transform="matrix(0.81,0,0,0.81,1.2925107,2.0616288)">
    <path
       d="M 4.8620355,3.179762 H 10.273494 V 4.695387 H 6.8672439 V 6.1433037 H 10.070369 V 7.6589288 H 6.8672439 v 1.78125 H 10.388077 V 10.955804 H 4.8620355 Z"
       style="font-style:normal;font-variant:normal;font-weight:bold;font-stretch:normal;font-size:10.66666698px;font-family:sans-serif;-inkscape-font-specification:'sans-serif, Bold';font-variant-ligatures:normal;font-variant-caps:normal;font-variant-numeric:normal;font-feature-settings:normal;text-align:start;writing-mode:lr-tb;text-anchor:start;fill:#0000ff;fill-opacity:1"
       id="path904"
       inkscape:connector-curvature="0" />
  </g>
  <g
     aria-label="S"
     style="font-style:normal;font-weight:normal;font-size:40px;line-height:1.25;font-family:sans-serif;letter-spacing:0px;word-spacing:0px;fill:#000000;fill-opacity:1;stroke:none"
     id="text837-8-5"
     transform="matrix(0.81,0,0,0.81,2.2050875,5.7948269)">
    <path
       d="m 15.972226,6.6203878 v 1.6458334 q -0.640625,-0.2864584 -1.25,-0.4322917 -0.609375,-0.1458333 -1.151041,-0.1458333 -0.71875,0 -1.0625,0.1979166 -0.34375,0.1979167 -0.34375,0.6145834 0,0.3125 0.229166,0.4895833 0.234375,0.171875 0.84375,0.2968751 l 0.854167,0.171875 q 1.296875,0.2604166 1.84375,0.7916664 0.546875,0.53125 0.546875,1.510417 0,1.286458 -0.765625,1.916667 -0.760417,0.625 -2.328125,0.625 -0.739583,0 -1.484375,-0.140625 -0.744792,-0.140625 -1.489583,-0.416667 V 12.05268 q 0.744791,0.395833 1.4375,0.598958 0.697916,0.197917 1.34375,0.197917 0.65625,0 1.005208,-0.21875 0.348958,-0.21875 0.348958,-0.625 0,-0.364584 -0.239583,-0.5625 -0.234375,-0.197917 -0.942708,-0.354167 l -0.776042,-0.171875 q -1.166667,-0.25 -1.708333,-0.796875 -0.536459,-0.5468751 -0.536459,-1.4739585 0,-1.1614583 0.75,-1.7864584 0.75,-0.625 2.15625,-0.625 0.640625,0 1.317709,0.098958 0.677083,0.09375 1.401041,0.2864587 z"
       style="font-style:normal;font-variant:normal;font-weight:bold;font-stretch:normal;font-size:10.66666698px;font-family:sans-serif;-inkscape-font-specification:'sans-serif, Bold';font-variant-ligatures:normal;font-variant-caps:normal;font-variant-numeric:normal;font-feature-settings:normal;text-align:start;writing-mode:lr-tb;text-anchor:start;fill:#0000ff;fill-opacity:1"
       id="path901"
       inkscape:connector-curvature="0" />
  </g>
</svg>
