<?xml version="1.0" encoding="UTF-8" standalone="no"?>
<!-- Generator: Adobe Illustrator 16.0.0, SVG Export Plug-In . SVG Version: 6.00 Build 0)  -->

<svg
   xmlns:dc="http://purl.org/dc/elements/1.1/"
   xmlns:cc="http://creativecommons.org/ns#"
   xmlns:rdf="http://www.w3.org/1999/02/22-rdf-syntax-ns#"
   xmlns:svg="http://www.w3.org/2000/svg"
   xmlns="http://www.w3.org/2000/svg"
   xmlns:sodipodi="http://sodipodi.sourceforge.net/DTD/sodipodi-0.dtd"
   xmlns:inkscape="http://www.inkscape.org/namespaces/inkscape"
   version="1.1"
   id="Capa_1"
   x="0px"
   y="0px"
   width="22"
   height="22"
   viewBox="0 0 22 22"
   xml:space="preserve"
   inkscape:version="0.92.5 (2060ec1f9f, 2020-04-08)"
   sodipodi:docname="indicator-script-runner.svg"><metadata
     id="metadata3030"><rdf:RDF><cc:Work
         rdf:about=""><dc:format>image/svg+xml</dc:format><dc:type
           rdf:resource="http://purl.org/dc/dcmitype/StillImage" /></cc:Work></rdf:RDF></metadata><defs
     id="defs3028" /><sodipodi:namedview
     pagecolor="#ffffff"
     bordercolor="#666666"
     borderopacity="1"
     objecttolerance="10"
     gridtolerance="10"
     guidetolerance="10"
     inkscape:pageopacity="0"
     inkscape:pageshadow="2"
     inkscape:window-width="1920"
     inkscape:window-height="1053"
     id="namedview3026"
     showgrid="true"
     inkscape:showpageshadow="true"
     fit-margin-top="5"
     fit-margin-left="5"
     fit-margin-right="5"
     fit-margin-bottom="5"
     inkscape:zoom="22.627417"
     inkscape:cx="6.7358539"
     inkscape:cy="5.4154184"
     inkscape:window-x="0"
     inkscape:window-y="27"
     inkscape:window-maximized="1"
     inkscape:current-layer="g3003"
     showborder="true"><inkscape:grid
       type="xygrid"
       id="grid3006"
       empspacing="5"
       visible="true"
       enabled="true"
       snapvisiblegridlinesonly="true" /></sodipodi:namedview><g
     id="g3015"
     transform="matrix(0.6,0,0,0.59999999,-1.0126911,-0.98730908)"><g
       style="fill:#6999b9;fill-opacity:1"
       transform="translate(2.6852608,-863.75367)"
       id="g2996" /><g
       style="fill:#6999b9;fill-opacity:1"
       transform="translate(2.6852608,-863.75367)"
       id="g2998" /><g
       style="fill:#6999b9;fill-opacity:1"
       transform="translate(2.6852608,-863.75367)"
       id="g3000" /><g
       style="fill:#6999b9;fill-opacity:1"
       transform="translate(2.6852608,-863.75367)"
       id="g3002" /><g
       style="fill:#6999b9;fill-opacity:1"
       transform="translate(2.6852608,-863.75367)"
       id="g3004" /><g
       style="fill:#6999b9;fill-opacity:1"
       transform="translate(2.6852608,-863.75367)"
       id="g3006" /><g
       style="fill:#6999b9;fill-opacity:1"
       transform="translate(2.6852608,-863.75367)"
       id="g3008" /><g
       style="fill:#6999b9;fill-opacity:1"
       transform="translate(2.6852608,-863.75367)"
       id="g3010" /><g
       style="fill:#6999b9;fill-opacity:1"
       transform="translate(2.6852608,-863.75367)"
       id="g3012" /><g
       style="fill:#6999b9;fill-opacity:1"
       transform="translate(2.6852608,-863.75367)"
       id="g3014" /><g
       style="fill:#6999b9;fill-opacity:1"
       transform="translate(2.6852608,-863.75367)"
       id="g3016" /><g
       style="fill:#6999b9;fill-opacity:1"
       transform="translate(2.6852608,-863.75367)"
       id="g3018" /><g
       style="fill:#6999b9;fill-opacity:1"
       transform="translate(2.6852608,-863.75367)"
       id="g3020" /><g
       style="fill:#6999b9;fill-opacity:1"
       transform="translate(2.6852608,-863.75367)"
       id="g3022" /><g
       style="fill:#6999b9;fill-opacity:1"
       transform="translate(2.6852608,-863.75367)"
       id="g3024" /><g
       id="g3005"><g
         id="g3003"
         transform="matrix(0.87092675,0,0,0.91019723,2.983681,1.9164614)"><path
           style="fill:#6999b9;fill-opacity:1;stroke-width:1.20000005"
           sodipodi:nodetypes="ccscccccccc"
           inkscape:connector-curvature="0"
           id="path2990"
           d="m 1.3257151,25.810853 c -1.05586595,0.134619 -1.92788687,0.846875 -1.81854563,2.007089 0.0961128,1.022352 0.84505644,1.789066 1.74446293,1.862262 0.1193928,0.0096 0.2437915,0.0066 0.3652416,-0.01 l 9.165189,-2.124325 c 0.457257,-0.05983 0.880155,-0.294484 1.197602,-0.665637 l 4.942064,-5.370548 -2.271559,0.647728 c -0.799325,-0.53262 0.670828,-3.713531 0.551868,-4.750976 l -5.5242071,6.463583 z" /><ellipse
           style="fill:#6999b9;fill-opacity:1;stroke-width:0.04444131"
           id="circle2992"
           cy="4.8181462"
           cx="29.861765"
           rx="4.6422396"
           ry="4.7263656" /><path
           style="fill:#6999b9;fill-opacity:1;stroke-width:1.20000005"
           sodipodi:nodetypes="cscccsccccccccccccccccccccscccsccc"
           inkscape:connector-curvature="0"
           id="path2994"
           d="M 20.286948,2.9344253 C 19.819805,2.3963191 19.386372,2.1839087 18.910813,2.1839087 c -0.172591,0 -0.345097,0.028321 -0.530312,0.075524 l -7.613129,2.024979 C 9.7152493,4.5629052 9.0671401,5.7476829 9.3154429,6.9230199 c 0.214632,1.0101288 1.0142461,1.6898412 1.9022391,1.6898412 0.151549,0 0.303013,-0.018876 0.45456,-0.061368 l 6.485292,-1.7228824 c 0.420849,0.5239453 2.529306,3.0870304 2.912279,3.5401723 v 0 c -2.680812,3.219195 -5.361623,6.433673 -8.042477,9.652871 -0.04208,0.05196 -0.07992,0.103848 -0.11784,0.155766 -0.782781,1.118694 -0.542854,2.87462 0.635523,3.540174 l 1.42664,0.816645 6.792512,3.889422 -4.267416,7.755337 c -0.584939,1.06682 -0.290344,2.46396 0.660734,3.124793 0.332471,0.231292 0.69861,0.339857 1.060541,0.339857 v 0 c 0.677568,0 1.342469,-0.382339 1.725484,-1.076213 l 5.420543,-9.851119 c 0.298802,-0.542827 0.378764,-1.198939 0.22305,-1.807848 -0.155715,-0.613631 -0.530271,-1.123415 -1.039499,-1.411349 l -5.567839,-3.176715 5.854059,-7.023701 4.41892,4.201004 c 0.366097,0.349249 0.816407,0.519225 1.262549,0.519225 0.479726,0 0.959536,-0.198249 1.33405,-0.585309 l 6.778906,-4.119264 c 0.791239,-0.82604 0.83749,-2.213787 0.101004,-3.101191 -0.387182,-0.462582 -0.909036,-0.698594 -1.430888,-0.698594 -0.475562,0 -0.95533,0.19353 -1.329886,0.585309 l -5.50373,2.778725 c -0.0042,0.0047 -9.515451,-10.0304879 -11.177805,-11.9421827 z" /><path
           style="fill:#6999b9;fill-opacity:1;stroke-width:1.20000005"
           d="M 0.56906831,2.4068025 H 11.666017 c 0.291594,0 0.527892,-0.1890973 0.527892,-0.4223727 0,-0.2332755 -0.236298,-0.4223728 -0.527892,-0.4223728 H 0.56906831 c -0.29159424,0 -0.52796616,0.1890973 -0.52796616,0.4223728 0,0.2332754 0.23637192,0.4223727 0.52796616,0.4223727 z"
           id="path8"
           inkscape:connector-curvature="0" /><path
           style="fill:#6999b9;fill-opacity:1;stroke-width:1.20000005"
           d="M -1.1203447,11.894457 H 9.9766081 c 0.2915939,0 0.5278919,-0.189097 0.5278919,-0.422373 0,-0.233275 -0.236298,-0.422372 -0.5278919,-0.422372 H -1.1203447 c -0.2915943,0 -0.5279662,0.189097 -0.5279662,0.422372 0,0.233276 0.2363719,0.422373 0.5279662,0.422373 z"
           id="path8-5"
           inkscape:connector-curvature="0" /><path
           style="fill:#6999b9;fill-opacity:1;stroke-width:1.20000005"
           d="m 1.216584,19.403034 h 11.096947 c 0.291594,0 0.527892,-0.189097 0.527892,-0.422372 0,-0.233275 -0.236298,-0.422372 -0.527892,-0.422372 H 1.216584 c -0.29159425,0 -0.52796617,0.189097 -0.52796617,0.422372 0,0.233275 0.23637192,0.422372 0.52796617,0.422372 z"
           id="path8-5-1"
           inkscape:connector-curvature="0" /><path
           style="fill:#6999b9;fill-opacity:1;stroke-width:1.20000005"
           d="M 4.3789315,35.08828 H 15.475882 c 0.291594,0 0.527892,-0.189097 0.527892,-0.422372 0,-0.233276 -0.236298,-0.422373 -0.527892,-0.422373 H 4.3789315 c -0.2915942,0 -0.5279662,0.189097 -0.5279662,0.422373 0,0.233275 0.236372,0.422372 0.5279662,0.422372 z"
           id="path8-5-1-9"
           inkscape:connector-curvature="0" /></g></g></g></svg>