<?xml version="1.0" encoding="UTF-8" standalone="no"?>
<svg
   xmlns:dc="http://purl.org/dc/elements/1.1/"
   xmlns:cc="http://creativecommons.org/ns#"
   xmlns:rdf="http://www.w3.org/1999/02/22-rdf-syntax-ns#"
   xmlns:svg="http://www.w3.org/2000/svg"
   xmlns="http://www.w3.org/2000/svg"
   id="svg310"
   version="1.1"
   height="22"
   width="22"
   viewBox="0 0 22 22">
  <metadata
     id="metadata316">
    <rdf:RDF>
      <cc:Work
         rdf:about="">
        <dc:format>image/svg+xml</dc:format>
        <dc:type
           rdf:resource="http://purl.org/dc/dcmitype/StillImage" />
        <dc:title></dc:title>
      </cc:Work>
    </rdf:RDF>
  </metadata>
  <defs
     id="defs314" />
  <path
     d=""
     style="fill:#0000aa;fill-opacity:1;fill-rule:evenodd;stroke:#0000aa;stroke-width:0.00051581;stroke-miterlimit:4;stroke-dasharray:none;stroke-opacity:1"
     id="path2" />
  <path
     d=""
     style="fill:#0000aa;fill-opacity:1;fill-rule:evenodd;stroke:#0000aa;stroke-width:0.00051581;stroke-miterlimit:4;stroke-dasharray:none;stroke-opacity:1"
     id="path4" />
  <path
     d=""
     style="fill:#0000aa;fill-opacity:1;fill-rule:evenodd;stroke:#0000aa;stroke-width:0.00051581;stroke-miterlimit:4;stroke-dasharray:none;stroke-opacity:1"
     id="path6" />
  <path
     id="path1624"
     d="M 0,5.6979824 3.9299552,1.7360907 7.498029,5.6798553 11.062383,1.7378873 14.600557,5.6979824 18.189369,1.7378873 22,5.7161096 V 4.1027975 L 18.176539,-0.03050097 14.63669,4.0301575 11,-0.03050097 7.509698,4.0301575 4,-0.03050097 0,4.0846704 Z"
     style="fill:#0000aa;fill-opacity:1;stroke:none;stroke-width:2.30737948;stroke-linecap:butt;stroke-linejoin:miter;stroke-miterlimit:4;stroke-dasharray:none;stroke-opacity:1" />
  <path
     id="path1624-1"
     d="M 0,13.64627 3.9299552,9.6843787 7.498029,13.628143 11.062383,9.6861753 14.600557,13.64627 18.189369,9.6861753 22,13.664397 V 12.051085 L 18.176539,7.917787 14.63669,11.978445 11,7.917787 7.509698,11.978445 4,7.917787 0,12.032958 Z"
     style="fill:#0000aa;fill-opacity:1;stroke:none;stroke-width:2.30737948;stroke-linecap:butt;stroke-linejoin:miter;stroke-miterlimit:4;stroke-dasharray:none;stroke-opacity:1" />
  <path
     id="path1624-8"
     d="m -0.00407355,21.997405 3.92995475,-3.961892 3.5680738,3.943765 3.56436,-3.941968 3.538174,3.960095 3.588812,-3.960095 3.810631,3.978222 V 20.40222 l -3.823461,-4.133298 -3.539849,4.060658 -3.63669,-4.060658 -3.490308,4.060658 -3.509698,-4.060658 -3.99999955,4.115171 z"
     style="fill:#0000aa;fill-opacity:1;stroke:none;stroke-width:2.30737948;stroke-linecap:butt;stroke-linejoin:miter;stroke-miterlimit:4;stroke-dasharray:none;stroke-opacity:1" />
</svg>
