<?xml version="1.0" encoding="UTF-8" standalone="no"?>
<!-- Created with Inkscape (http://www.inkscape.org/) -->

<svg
   xmlns:dc="http://purl.org/dc/elements/1.1/"
   xmlns:cc="http://creativecommons.org/ns#"
   xmlns:rdf="http://www.w3.org/1999/02/22-rdf-syntax-ns#"
   xmlns:svg="http://www.w3.org/2000/svg"
   xmlns="http://www.w3.org/2000/svg"
   xmlns:sodipodi="http://sodipodi.sourceforge.net/DTD/sodipodi-0.dtd"
   xmlns:inkscape="http://www.inkscape.org/namespaces/inkscape"
   version="1.0"
   width="22"
   height="22"
   id="svg2"
   inkscape:version="0.92.5 (2060ec1f9f, 2020-04-08)"
   sodipodi:docname="indicator-lunar-satellite.svg">
  <metadata
     id="metadata168">
    <rdf:RDF>
      <cc:Work
         rdf:about="">
        <dc:format>image/svg+xml</dc:format>
        <dc:type
           rdf:resource="http://purl.org/dc/dcmitype/StillImage" />
      </cc:Work>
    </rdf:RDF>
  </metadata>
  <sodipodi:namedview
     pagecolor="#ffffff"
     bordercolor="#666666"
     borderopacity="1"
     objecttolerance="10"
     gridtolerance="10"
     guidetolerance="10"
     inkscape:pageopacity="0"
     inkscape:pageshadow="2"
     inkscape:window-width="1920"
     inkscape:window-height="1053"
     id="namedview166"
     showgrid="true"
     inkscape:zoom="22.627418"
     inkscape:cx="8.9349721"
     inkscape:cy="12.351448"
     inkscape:window-x="0"
     inkscape:window-y="27"
     inkscape:window-maximized="1"
     inkscape:current-layer="svg2"
     fit-margin-top="5"
     fit-margin-left="5"
     fit-margin-right="5"
     fit-margin-bottom="5"
     showborder="true"
     inkscape:showpageshadow="true">
    <inkscape:grid
       type="xygrid"
       id="grid3009"
       empspacing="5"
       visible="true"
       enabled="true"
       snapvisiblegridlinesonly="true" />
  </sodipodi:namedview>
  <defs
     id="defs4" />
  <g
     inkscape:groupmode="layer"
     id="layer1"
     inkscape:label="Layer"
     style="display:inline"
     transform="translate(-1048.4081,-718.3302)" />
  <g
     inkscape:groupmode="layer"
     id="layer3"
     inkscape:label="Layer#1"
     style="display:inline"
     transform="translate(-1048.4081,-718.3302)" />
  <path
     style="fill:#fff200;fill-opacity:1;stroke:#dfdbd2;stroke-width:0.02316942;stroke-opacity:1"
     d=""
     id="path5290"
     inkscape:connector-curvature="0" />
  <path
     style="fill:#fff200;fill-opacity:1;stroke:#dfdbd2;stroke-width:0.00390625;stroke-opacity:1"
     d=""
     id="path5306"
     inkscape:connector-curvature="0" />
  <path
     style="fill:#fff200;fill-opacity:1;stroke:#dfdbd2;stroke-width:0.00552427;stroke-opacity:1"
     d=""
     id="path5318"
     inkscape:connector-curvature="0" />
  <path
     style="fill:#fff200;fill-opacity:1;stroke:#dfdbd2;stroke-width:0.00552427;stroke-opacity:1"
     d=""
     id="path5324"
     inkscape:connector-curvature="0" />
  <path
     style="fill:#fff200;fill-opacity:1;stroke:#dfdbd2;stroke-width:0.00552427;stroke-opacity:1"
     d=""
     id="path5326"
     inkscape:connector-curvature="0" />
  <path
     style="fill:#fff200;fill-opacity:1;stroke:#dfdbd2;stroke-width:0.00390625;stroke-opacity:1"
     d=""
     id="path5328"
     inkscape:connector-curvature="0" />
  <path
     style="fill:#fff200;fill-opacity:1;stroke:#dfdbd2;stroke-width:0.00390625;stroke-opacity:1"
     d=""
     id="path5330"
     inkscape:connector-curvature="0" />
  <path
     style="fill:#fff200;fill-opacity:1;stroke:#dfdbd2;stroke-width:0.00390625;stroke-opacity:1"
     d=""
     id="path5338"
     inkscape:connector-curvature="0" />
  <path
     style="fill:#fff200;fill-opacity:1;stroke:#dfdbd2;stroke-width:0.00390625;stroke-opacity:1"
     d=""
     id="path5340"
     inkscape:connector-curvature="0" />
  <path
     style="fill:#fff200;fill-opacity:1;stroke:#dfdbd2;stroke-width:0.00390625;stroke-opacity:1"
     d=""
     id="path5344"
     inkscape:connector-curvature="0" />
  <path
     style="fill:#fff200;fill-opacity:1;stroke:#dfdbd2;stroke-width:0.00390625;stroke-opacity:1"
     d=""
     id="path5348"
     inkscape:connector-curvature="0" />
  <path
     style="fill:#fff200;fill-opacity:1;stroke:#dfdbd2;stroke-width:0.0625;stroke-opacity:1"
     d=""
     id="path5358"
     inkscape:connector-curvature="0" />
  <path
     style="fill:#fff200;fill-opacity:1;stroke:#dfdbd2;stroke-width:0.02209709;stroke-opacity:1"
     d=""
     id="path5360"
     inkscape:connector-curvature="0" />
  <path
     style="fill:#fff200;fill-opacity:1;stroke:#dfdbd2;stroke-width:0.02209709;stroke-opacity:1"
     d=""
     id="path5368"
     inkscape:connector-curvature="0" />
  <g
     id="g3002"
     transform="matrix(0.04825782,0,0,0.04606775,-0.03099432,1.4146181)">
    <path
       inkscape:connector-curvature="0"
       id="path3068"
       d="m 253.94506,399.01049 c -1.73007,-1.46519 -3.5866,-3.09026 -4.12562,-3.61127 -0.95221,-0.92038 -0.22289,-1.91915 25.68348,-35.17192 l 26.66352,-34.22463 0.18637,-3.70738 c 0.10251,-2.03906 -0.013,-4.46477 -0.25666,-5.39048 l -0.44305,-1.68312 -2.88345,3.48076 c -1.5859,1.91441 -15.09642,18.83225 -30.02337,37.5952 -14.92696,18.76295 -27.34687,34.11446 -27.59981,34.11446 -0.86759,0 -11.03904,-8.91217 -10.83125,-9.49028 0.11421,-0.31779 16.80923,-22.14028 37.10003,-48.49444 20.2908,-26.35415 37.92234,-49.28172 39.1812,-50.95013 2.24426,-2.97441 2.27654,-3.07448 1.65791,-5.13929 -0.77895,-2.59991 -1.83008,-3.05598 -4.03106,-1.74902 -1.04917,0.623 -16.98477,20.31705 -41.63558,51.45543 l -39.93586,50.44612 -4.27544,-3.21176 c -2.35149,-1.76647 -4.47075,-3.38266 -4.70947,-3.59153 -0.23872,-0.20888 9.61089,-13.24797 21.88803,-28.97575 12.59285,-16.13224 22.32206,-29.05713 22.32206,-29.654 0,-0.58192 -0.29243,-1.23876 -0.64985,-1.45966 -0.95478,-0.59008 -5.92267,-0.33914 -9.90124,0.50014 -2.58334,0.54497 -3.73822,0.58472 -4.50638,0.15512 -2.32894,-1.30248 -5.28266,-4.36455 -5.91487,-6.13185 -0.61512,-1.71952 -0.55059,-2.15412 0.73758,-4.96787 1.19978,-2.62066 1.3159,-3.26246 0.77361,-4.27573 -0.45939,-0.85838 -1.1073,-1.19224 -2.3137,-1.19224 -0.9216,0 -2.23827,-0.4409 -2.92593,-0.97975 -0.68766,-0.53887 -6.08663,-4.271 -11.99771,-8.29362 -10.81182,-7.35769 -13.25204,-8.55162 -17.47831,-8.55162 -1.51339,0 -2.15271,0.40562 -3.8975,2.47272 -1.93619,2.29386 -2.18333,2.42889 -3.41681,1.86688 -2.64027,-1.20299 -2.30188,-3.82932 0.95835,-7.43801 1.04582,-1.15759 1.76768,-2.3212 1.60415,-2.5858 -0.16354,-0.2646 -3.96123,-3.13284 -8.43933,-6.37386 -4.47811,-3.24103 -8.2875,-6.1282 -8.46534,-6.41594 -0.17784,-0.28774 -0.51918,-1.38004 -0.75856,-2.42733 -0.35813,-1.56691 -0.0137,-3.25049 1.94497,-9.50598 1.30911,-4.18101 2.77465,-7.91699 3.25677,-8.30219 0.59272,-0.47357 1.76336,-0.61362 3.61512,-0.4325 2.51508,0.24599 2.97807,0.51706 5.67363,3.32167 l 2.93508,3.05383 -0.29992,-12.7983 c -0.16496,-7.03906 -0.29992,-15.00133 -0.29992,-17.69392 0,-4.79544 -0.0253,-4.89561 -1.23763,-4.89561 -0.68069,0 -2.57299,-0.87941 -4.20511,-1.95424 -3.68494,-2.42673 -5.04594,-4.9924 -5.50194,-10.37191 l -0.327,-3.85763 -14.15514,-11.09336 -14.15513,-11.09336 -0.3932,15.5154 c -0.21626,8.53347 -0.57014,22.45659 -0.78639,30.94028 l -0.3932,15.42488 -2.93354,-2.17547 -2.93353,-2.17547 -0.34312,-13.33445 c -0.18871,-7.33396 -0.34312,-20.71371 -0.34312,-29.7328 0,-9.01908 -0.17693,-16.50212 -0.39319,-16.62897 -0.32529,-0.1908 -27.7876,33.08785 -30.25938,36.66812 -0.42206,0.61135 -0.92886,3.04777 -1.12622,5.41426 -0.33911,4.06624 -0.41934,4.28307 -1.45968,3.94512 -3.03905,-0.98722 -2.4483,-1.58843 -27.316729,27.80037 -13.175682,15.57065 -24.109222,28.36289 -24.296756,28.4272 -0.187534,0.0643 -2.573,-1.96217 -5.301034,-4.50327 l -4.960062,-4.62019 1.604049,-2.05004 c 0.882227,-1.12752 19.237757,-24.79054 40.790064,-52.58449 38.091978,-49.12359 39.166348,-50.57137 38.481718,-51.85662 -0.38737,-0.72719 -1.41003,-1.75219 -2.27258,-2.27777 -1.54362,-0.94058 -1.58583,-0.93718 -2.68621,0.2166 -0.61487,0.64471 -18.75682,23.58449 -40.315458,50.9773 -21.558631,27.3928 -39.562492,50.22644 -40.008577,50.74142 -0.446086,0.51499 -0.943758,1.87129 -1.105937,3.01401 l -0.29487,2.07768 -5.637783,-5.0173 -5.637783,-5.01729 2.298073,-2.97722 c 1.26394,-1.63747 17.326994,-22.32257 35.695673,-45.96689 l 33.397602,-42.98966 -0.23996,-4.58521 c -0.22994,-4.39377 -0.85554,-6.1887 -2.13989,-6.13962 -0.43417,0.0166 -74.740184,89.7821 -78.812344,95.20939 -0.554617,0.73918 -1.167016,0.44213 -5.111576,-2.47937 -2.464807,-1.82554 -4.481468,-3.52121 -4.481468,-3.76817 0,-0.24695 17.646591,-23.14152 39.214647,-50.87682 21.568056,-27.73531 39.444291,-50.9762 39.724971,-51.64643 0.506073,-1.20845 0.544097,-1.19393 4.56404,1.7418 4.11812,3.00743 5.79801,3.44731 5.98997,1.5685 0.076,-0.74406 -1.54781,-2.44753 -5.66337,-5.94109 -3.173475,-2.69385 -5.680585,-5.171 -5.571355,-5.50477 0.284078,-0.86805 6.821125,-2.91345 11.079295,-3.46664 2.9415,-0.38213 3.88787,-0.74823 5.04305,-1.95089 0.78212,-0.81428 19.17595,-24.010749 40.87518,-51.547726 21.69923,-27.536976 39.9548,-50.581361 40.56794,-51.209744 l 1.1148,-1.142513 6.07405,4.288098 6.07406,4.288099 -40.5116,51.902155 c -22.28137,28.546181 -40.51667,52.020111 -40.52288,52.164291 -0.0242,0.56118 6.81513,5.2711 7.25734,4.9978 0.25805,-0.15948 18.79657,-22.92151 41.19671,-50.582292 l 40.72754,-50.292327 3.85433,1.907171 c 2.47634,1.225327 3.69597,2.104278 3.41141,2.45849 -0.2436,0.303224 -17.8096,23.497291 -39.03555,51.542369 -34.31921,45.344719 -38.59264,51.197569 -38.59264,52.856079 0,1.61739 0.15155,1.84278 1.14137,1.6975 0.79461,-0.11663 13.23162,-15.1397 40.93636,-49.448362 21.88725,-27.104459 40.34364,-49.969891 41.01419,-50.812071 l 1.21919,-1.531236 5.81461,3.344352 c 3.19805,1.839393 5.81462,3.480137 5.81462,3.646097 0,0.16596 -18.4157,23.266048 -40.92379,51.333527 -22.50809,28.067483 -40.82106,51.299523 -40.69549,51.626763 0.21747,0.56669 27.34074,20.77006 27.88408,20.77006 0.14314,0 0.26148,-1.82837 0.26297,-4.06304 0.005,-7.71234 0.63858,-14.36402 1.39552,-14.65448 0.39024,-0.14975 1.55279,0.37091 2.58344,1.15704 1.03066,0.78612 2.05599,1.22514 2.27852,0.9756 0.22253,-0.24954 12.37808,-15.67047 27.01233,-34.26874 14.63426,-18.59827 26.99491,-34.121019 27.46813,-34.494987 0.75887,-0.599711 0.89963,-0.445064 1.19297,1.31066 0.18292,1.094832 0.50729,10.247766 0.72081,20.339847 0.21352,10.09209 0.55107,18.78959 0.75011,19.32779 0.29967,0.81031 1.56968,-0.29376 7.38747,-6.42224 3.86407,-4.07042 7.21919,-7.40077 7.45582,-7.40077 0.23663,0 6.43615,3.7747 13.77671,8.38823 7.34055,4.61352 13.55692,8.38822 13.81414,8.38822 0.5303,0 16.31487,-19.7108 16.31487,-20.37301 0,-0.23622 -5.60307,-5.69415 -12.45127,-12.128735 -6.8482,-6.434583 -12.50002,-11.839553 -12.55958,-12.011045 -0.0596,-0.171486 1.73302,-2.963067 3.98353,-6.203513 l 4.09185,-5.891718 13.05505,10.550109 c 11.56077,9.34254 15.27824,11.980743 16.882,11.980743 0.2491,0 2.97507,-3.867146 6.05771,-8.593655 5.53647,-8.488881 5.66697,-8.638438 10.70454,-12.267085 4.08637,-2.943481 5.23477,-3.545247 5.77923,-3.028344 0.8839,0.839158 3.99996,9.171871 4.82544,12.903835 0.64249,2.904639 0.64079,2.912498 -1.58411,7.339699 -1.22501,2.437572 -3.10649,5.7295 -4.18107,7.315399 -2.74345,4.04887 -4.90295,8.47194 -4.32259,8.85352 0.26862,0.17661 5.96019,4.07888 12.64794,8.67171 8.26047,5.67291 12.06982,8.58439 11.87977,9.07967 -0.15387,0.40098 -1.74439,2.44758 -3.53449,4.54801 l -3.25472,3.81895 -5.5293,-3.50979 c -3.04112,-1.93039 -9.51836,-6.04371 -14.39389,-9.14071 -6.63467,-4.21445 -9.0912,-5.52119 -9.76549,-5.19472 -0.4955,0.23992 -2.46136,1.87758 -4.36856,3.63924 -2.93674,2.71263 -4.19514,4.50769 -8.21917,11.72427 -3.94693,7.07833 -4.69506,8.77824 -4.41815,10.039 0.35489,1.6158 1.59105,2.55757 3.35707,2.55757 0.60221,0 2.7605,-1.54144 4.87393,-3.48094 3.6433,-3.34345 3.80697,-3.43145 4.14403,-2.22812 0.19301,0.68905 0.37444,3.38997 0.40318,6.00206 0.0324,2.94415 0.30133,5.05695 0.70759,5.55885 0.53092,0.65593 4.17767,3.51775 15.00143,11.77255 0.10504,0.0801 -10.09849,14.79677 -22.67452,32.70372 -12.57602,17.90694 -23.19735,33.1998 -23.60295,33.98415 -0.93897,1.81575 -1.88915,6.92077 -1.86509,10.02051 0.0341,4.39521 2.24904,6.89253 11.77736,13.27883 4.32518,2.89892 8.4266,5.70535 9.11426,6.23651 1.44755,1.1181 2.68169,1.25773 2.68169,0.30341 0,-0.36428 -0.85858,-1.93725 -1.90796,-3.49547 -1.29993,-1.9303 -1.75938,-3.05862 -1.44173,-3.54068 1.78926,-2.7153 77.62358,-100.24289 77.96524,-100.26808 0.2377,-0.0175 2.76719,1.66237 5.62109,3.7331 3.26369,2.36806 5.03097,3.97283 4.7632,4.32518 -0.91945,1.20992 -78.52011,96.14297 -80.67143,98.68971 l -2.29212,2.7134 2.89145,2.13604 c 1.5903,1.17482 3.19642,2.12115 3.56916,2.10296 0.37275,-0.0182 19.07939,-23.0175 41.57033,-51.10959 22.49093,-28.09209 41.09048,-51.07931 41.33233,-51.08269 0.24185,-0.003 3.02459,1.78515 6.18387,3.97453 4.01878,2.78502 5.59743,4.16291 5.25572,4.58732 -5.45006,6.76885 -79.24948,104.39096 -79.14026,104.68697 0.0853,0.23121 2.25664,2.09821 4.82516,4.14889 l 4.67002,3.72851 1.30562,-1.19327 1.30562,-1.19327 -0.34009,1.31066 c -1.25222,4.82598 -0.81925,7.78652 1.45062,9.91895 l 1.23546,1.16065 2.61514,-2.61514 c 1.66431,-1.66432 3.15871,-2.67778 4.11017,-2.78742 1.2809,-0.1476 7.33099,-7.34191 42.24123,-50.23009 22.4104,-27.53181 40.93583,-50.11875 41.1676,-50.19322 0.31433,-0.10099 11.22548,8.12457 12.59853,9.49762 0.17967,0.17967 -78.80167,99.77036 -80.83282,101.92531 -0.52638,0.55845 -1.58382,-0.0531 -5.66535,-3.27665 -2.75999,-2.17979 -5.24092,-3.96326 -5.51317,-3.96326 -0.27225,0 -4.0075,2.02585 -8.30056,4.50189 l -7.80556,4.50189 -4.20337,-0.32524 -4.20337,-0.32524 -41.0434,50.60896 c -22.57387,27.83493 -41.20729,50.60686 -41.40762,50.6043 -0.20032,-0.003 -1.77973,-1.20345 -3.5098,-2.66864 z m 66.23653,-96.00641 c 4.37077,-6.26435 7.94686,-11.5361 7.94686,-11.71501 0,-0.17891 -0.48791,-1.01049 -1.08423,-1.84795 -2.01371,-2.82799 -2.86696,-2.27116 -10.14068,6.6178 l -6.66123,8.14047 0.36094,5.09721 c 0.37392,5.28053 0.59987,6.2818 1.24928,5.53608 0.21021,-0.24138 3.95829,-5.56425 8.32906,-11.8286 z m -40.58953,-21.27794 c 6.32052,-7.98959 11.58041,-14.7922 11.68864,-15.11691 0.16859,-0.50576 -27.23172,-22.15707 -28.63038,-22.62329 -0.27595,-0.092 -0.66803,1.67499 -0.87129,3.92659 l -0.36955,4.09383 -2.47146,1.1796 c -1.3593,0.64877 -3.18624,1.17959 -4.05987,1.17959 -1.35962,0 -1.63562,-0.23599 -1.91608,-1.63832 -0.18022,-0.90108 -0.32988,-2.84741 -0.33259,-4.32518 l -0.005,-2.68686 -1.52893,2.66563 c -1.20205,2.09572 -1.71534,4.00121 -2.4008,8.91249 -0.47952,3.43578 -1.7946,9.80756 -2.92239,14.15952 -1.128,4.35195 -2.05074,8.26373 -2.05074,8.69283 0,0.4291 0.53082,1.07678 1.1796,1.43929 0.64877,0.36251 2.94898,2.98471 5.11157,5.82711 4.30799,5.66222 4.57135,5.79623 8.66172,4.40752 3.28437,-1.11508 5.60008,-0.34769 7.35903,2.43866 0.71122,1.12665 1.4671,2.03629 1.67974,2.02144 0.21265,-0.0148 5.55796,-6.56395 11.87849,-14.55354 v 0 z M 220.68922,229.8562 c 3.52604,-4.82978 6.62195,-9.05341 6.87981,-9.38584 0.3231,-0.41653 -1.66718,-2.08702 -6.40244,-5.37371 -3.7792,-2.62311 -6.97398,-4.76929 -7.0995,-4.76929 -0.12553,0 -0.22824,6.36981 -0.22824,14.15513 0,7.78533 0.0989,14.15514 0.21971,14.15514 0.12083,0 3.10463,-3.95165 6.63066,-8.78143 z m 29.17225,-30.61837 c 1.66929,-2.92743 3.81354,-6.21291 4.76503,-7.30106 1.63881,-1.87421 3.77481,-6.77863 3.77481,-8.66727 0,-0.47897 4.14781,-6.35967 9.21737,-13.06823 8.73509,-11.55918 9.33353,-12.22663 11.43743,-12.7564 2.49589,-0.62847 3.60083,-1.63516 4.69937,-4.2815 0.73077,-1.76037 0.7034,-1.87347 -0.89746,-3.70912 -1.42279,-1.63145 -29.55583,-19.69692 -29.95637,-19.2363 -0.0761,0.0875 -0.65478,1.18291 -1.28596,2.43422 -0.63117,1.2513 -1.93735,3.37457 -2.90263,4.71837 -0.96527,1.34381 -2.54214,4.54886 -3.50416,7.12234 -1.63738,4.38015 -1.95007,4.83201 -4.89471,7.07329 -1.73007,1.31682 -5.52113,4.69922 -8.42458,7.51644 -4.62837,4.49091 -5.42132,5.52528 -6.43369,8.39251 -1.03139,2.92109 -1.46043,3.46623 -4.01798,5.10522 -2.31152,1.48132 -3.57217,2.91423 -6.54185,7.43577 -2.02321,3.08046 -3.67464,5.79353 -3.66985,6.02904 0.005,0.2355 4.78216,3.68459 10.61635,7.66463 l 10.60764,7.23644 0.33117,-1.46954 c 0.18214,-0.80824 0.3665,-3.35688 0.40967,-5.66364 0.0723,-3.86172 0.18585,-4.27237 1.43296,-5.18152 1.20316,-0.8771 1.65518,-0.91978 4.04657,-0.3821 1.48067,0.33292 3.73439,1.19893 5.00826,1.92446 1.72032,0.97981 2.41801,1.15432 2.71216,0.67839 0.84496,-1.36719 1.09488,-6.74888 0.43328,-9.3303 -0.83806,-3.26994 -0.1035,-5.44015 1.75212,-5.17651 0.99074,0.14075 1.26212,0.65906 1.73429,3.31244 0.53047,2.98104 0.48378,3.28271 -0.89249,5.76691 -1.07633,1.9428 -1.79796,4.63129 -2.78787,10.38635 -1.56951,9.12461 -1.54506,8.74929 -0.56979,8.74929 0.42205,0 2.12836,-2.38944 3.80091,-5.32262 z m 47.80675,-29.58482 3.87909,-6.5748 -1.16608,-2.07474 c -1.41031,-2.50933 -1.11743,-4.75346 0.90096,-6.90345 0.9202,-0.98019 1.1123,-1.44401 0.60006,-1.44888 -0.41437,-0.004 -1.23051,-0.13536 -1.81363,-0.29206 -0.74878,-0.20121 -2.30576,0.64234 -5.30025,2.8716 -3.7293,2.77628 -4.32108,3.44599 -4.91291,5.5598 -0.63668,2.27397 -0.56305,2.75455 1.36826,8.93043 1.12264,3.58992 2.15912,6.52257 2.30329,6.517 0.14417,-0.006 2.00772,-2.96877 4.14121,-6.5849 z"
       style="fill:#fff200;fill-opacity:1" />
    <path
       inkscape:connector-curvature="0"
       id="path3070"
       d="m 352.88672,283.74036 c -1.58848,-1.38773 -3.65875,-2.99593 -4.60057,-3.57378 l -1.71241,-1.05065 40.24337,-51.29341 c 22.13386,-28.21138 40.43333,-51.35425 40.66547,-51.4286 0.23216,-0.0743 2.52936,1.41531 5.10489,3.31034 4.32083,3.17918 4.62808,3.52482 3.9748,4.47158 -1.67148,2.42244 -80.23169,102.02151 -80.49572,102.05293 -0.16042,0.0191 -1.59135,-1.1007 -3.17983,-2.48841 z"
       style="fill:#fff200;fill-opacity:1" />
    <path
       inkscape:connector-curvature="0"
       id="path3072"
       d="m 270.36222,410.68832 c -3.36941,-2.7899 -6.07127,-5.2831 -6.00414,-5.54043 0.26534,-1.01712 80.84791,-102.49472 81.41148,-102.52145 0.33139,-0.0157 3.56529,2.36825 7.18644,5.29771 l 6.5839,5.32629 -1.46513,1.88234 c -0.80583,1.03529 -3.64647,4.67473 -6.31255,8.08765 l -4.8474,6.2053 0.57678,17.59608 c 0.31723,9.67785 0.51345,17.65941 0.43604,17.73681 -0.0774,0.0774 -2.09833,-1.43238 -4.49094,-3.35508 l -4.35021,-3.49581 0.3585,-9.43676 c 0.35034,-9.22173 0.33599,-9.41644 -0.62958,-8.54546 -0.54344,0.49022 -14.55341,17.76104 -31.13327,38.3796 -16.57985,20.61857 -30.38111,37.48099 -30.66945,37.47203 -0.28835,-0.009 -3.28106,-2.29892 -6.65047,-5.08882 z"
       style="fill:#fff200;fill-opacity:1" />
    <path
       inkscape:connector-curvature="0"
       id="path3070-1"
       d="m 102.18756,109.95358 c -1.58848,-1.38773 -3.658746,-2.99593 -4.600566,-3.57378 l -1.71241,-1.05065 40.243366,-51.293403 c 22.13387,-28.21138 40.43334,-51.3542499 40.66548,-51.4285999 0.23216,-0.0743 2.52936,1.41531 5.10489,3.31034 4.32083,3.17918 4.62808,3.52482 3.9748,4.4715799 -1.67148,2.42244 -80.2317,102.021503 -80.49573,102.052923 -0.16042,0.0191 -1.59135,-1.1007 -3.17983,-2.48841 z"
       style="fill:#fff200;fill-opacity:1" />
    <path
       inkscape:connector-curvature="0"
       id="path3070-1-1"
       d="m 7.6875589,227.45358 c -1.58848,-1.38773 -3.658746,-2.99593 -4.600566,-3.57378 l -1.71241,-1.05065 40.2433691,-51.29341 c 22.13387,-28.21138 40.43334,-51.35425 40.66548,-51.4286 0.23216,-0.0743 2.52936,1.41531 5.10489,3.31034 4.32083,3.17918 4.62808,3.52482 3.9748,4.47158 -1.67148,2.42244 -80.231703,102.02151 -80.495733,102.05293 -0.16042,0.0191 -1.5913501,-1.1007 -3.1798301,-2.48841 z"
       style="fill:#fff200;fill-opacity:1" />
  </g>
</svg>
