<?xml version="1.0" encoding="UTF-8" standalone="no"?>
<svg
   xmlns:dc="http://purl.org/dc/elements/1.1/"
   xmlns:cc="http://creativecommons.org/ns#"
   xmlns:rdf="http://www.w3.org/1999/02/22-rdf-syntax-ns#"
   xmlns:svg="http://www.w3.org/2000/svg"
   xmlns="http://www.w3.org/2000/svg"
   xmlns:sodipodi="http://sodipodi.sourceforge.net/DTD/sodipodi-0.dtd"
   xmlns:inkscape="http://www.inkscape.org/namespaces/inkscape"
   version="1.1"
   viewBox="0 0 40.026343 40.074736"
   id="svg3245"
   inkscape:version="0.48.4 r9939"
   width="100%"
   height="100%"
   sodipodi:docname="indicator-fortune.svg">
  <metadata
     id="metadata3253">
    <rdf:RDF>
      <cc:Work
         rdf:about="">
        <dc:format>image/svg+xml</dc:format>
        <dc:type
           rdf:resource="http://purl.org/dc/dcmitype/StillImage" />
        <dc:title />
      </cc:Work>
    </rdf:RDF>
  </metadata>
  <defs
     id="defs3251" />
  <sodipodi:namedview
     pagecolor="#ffffff"
     bordercolor="#666666"
     borderopacity="1"
     objecttolerance="10"
     gridtolerance="10"
     guidetolerance="10"
     inkscape:pageopacity="0"
     inkscape:pageshadow="2"
     inkscape:window-width="960"
     inkscape:window-height="1028"
     id="namedview3249"
     showgrid="true"
     inkscape:zoom="3.75"
     inkscape:cx="60.013117"
     inkscape:cy="-5.7519666"
     inkscape:window-x="514"
     inkscape:window-y="24"
     inkscape:window-maximized="0"
     inkscape:current-layer="svg3245"
     fit-margin-top="5"
     fit-margin-left="5"
     fit-margin-right="5"
     fit-margin-bottom="5"
     inkscape:showpageshadow="false"
     showborder="false">
    <inkscape:grid
       type="xygrid"
       id="grid3325"
       empspacing="5"
       visible="true"
       enabled="true"
       snapvisiblegridlinesonly="true"
       originx="-164.6116px"
       originy="-165.24235px" />
  </sodipodi:namedview>
  <path
     style="fill:#fec168;fill-opacity:1;stroke:#000000;stroke-width:0.70275337;stroke-miterlimit:4;stroke-opacity:1;stroke-dasharray:none"
     d="m 22.076172,34.513859 c -1.117594,0.190615 -3.581514,0.285778 -4.693929,0.181171 -1.460012,-0.137315 -2.901468,-0.523507 -4.33317,-1.160953 -3.2097418,-1.429085 -5.1415778,-3.385724 -6.4930238,-6.576382 -0.617868,-1.458741 -0.911195,-2.551571 -1.087684,-4.052524 -0.393156,-3.343478 0.274073,-6.605562 1.831634,-8.95488 2.134535,-3.219578 5.4623048,-5.7067629 9.9851508,-7.4629299 0.730495,-0.28367 1.610554,-0.635126 1.955683,-0.781071 l 0.627496,-0.265329 0.287647,0.448849 c 0.167806,0.261832 0.353251,0.694768 0.445069,1.039067 0.182462,0.684047 0.632801,4.4545089 0.667719,5.5905539 0.06679,2.172358 -0.513178,4.431775 -1.89798,7.394166 -0.853355,1.825507 -1.41782,2.630274 -2.89394,4.125939 l -1.130998,1.145974 0.408871,-0.02289 c 0.510664,-0.02859 0.829432,-0.233979 2.660768,-1.714268 1.515122,-1.224707 2.954089,-2.186138 4.857631,-3.245566 1.169387,-0.650836 1.555571,-0.820481 3.041329,-1.335962 1.481441,-0.513988 1.935476,-0.631955 3.505622,-0.910773 2.200876,-0.391004 3.274607,-0.517667 3.82926,-0.451688 0.444575,0.05289 0.832325,0.322731 0.963539,0.670546 0.145656,0.386151 -0.08935,1.630965 -0.633952,3.357719 -0.297729,0.943981 -0.693832,2.278652 -0.880257,2.965931 -0.38526,1.4204 -1.088098,3.008429 -1.72252,3.89197 -0.616268,0.858263 -2.413237,2.685235 -3.333109,3.388765 -1.30889,1.001054 -2.111437,1.442469 -3.730881,2.052047 -1.010459,0.380367 -1.702656,0.591714 -2.23595,0.682694 z"
     id="path4375"
     inkscape:connector-curvature="0" />
</svg>
