<?xml version="1.0" encoding="UTF-8" standalone="no"?>
<!-- Generator: Adobe Illustrator 16.0.0, SVG Export Plug-In . SVG Version: 6.00 Build 0)  -->

<svg
   xmlns:dc="http://purl.org/dc/elements/1.1/"
   xmlns:cc="http://creativecommons.org/ns#"
   xmlns:rdf="http://www.w3.org/1999/02/22-rdf-syntax-ns#"
   xmlns:svg="http://www.w3.org/2000/svg"
   xmlns="http://www.w3.org/2000/svg"
   xmlns:sodipodi="http://sodipodi.sourceforge.net/DTD/sodipodi-0.dtd"
   xmlns:inkscape="http://www.inkscape.org/namespaces/inkscape"
   version="1.1"
   id="Capa_1"
   x="0px"
   y="0px"
   width="40"
   height="40"
   viewBox="0 0 40 40"
   xml:space="preserve"
   inkscape:version="0.48.4 r9939"
   sodipodi:docname="indicator-script-runner.svg"><metadata
     id="metadata3030"><rdf:RDF><cc:Work
         rdf:about=""><dc:format>image/svg+xml</dc:format><dc:type
           rdf:resource="http://purl.org/dc/dcmitype/StillImage" /></cc:Work></rdf:RDF></metadata><defs
     id="defs3028" /><sodipodi:namedview
     pagecolor="#ffffff"
     bordercolor="#666666"
     borderopacity="1"
     objecttolerance="10"
     gridtolerance="10"
     guidetolerance="10"
     inkscape:pageopacity="0"
     inkscape:pageshadow="2"
     inkscape:window-width="960"
     inkscape:window-height="1028"
     id="namedview3026"
     showgrid="false"
     inkscape:showpageshadow="false"
     fit-margin-top="5"
     fit-margin-left="5"
     fit-margin-right="5"
     fit-margin-bottom="5"
     inkscape:zoom="4.7433113"
     inkscape:cx="15.041918"
     inkscape:cy="8.5040516"
     inkscape:window-x="407"
     inkscape:window-y="24"
     inkscape:window-maximized="0"
     inkscape:current-layer="Capa_1"
     showborder="false" /><g
     id="g2996"
     transform="translate(2.6852608,-863.75367)"
     style="fill:#6999b9;fill-opacity:1" /><g
     id="g2998"
     transform="translate(2.6852608,-863.75367)"
     style="fill:#6999b9;fill-opacity:1" /><g
     id="g3000"
     transform="translate(2.6852608,-863.75367)"
     style="fill:#6999b9;fill-opacity:1" /><g
     id="g3002"
     transform="translate(2.6852608,-863.75367)"
     style="fill:#6999b9;fill-opacity:1" /><g
     id="g3004"
     transform="translate(2.6852608,-863.75367)"
     style="fill:#6999b9;fill-opacity:1" /><g
     id="g3006"
     transform="translate(2.6852608,-863.75367)"
     style="fill:#6999b9;fill-opacity:1" /><g
     id="g3008"
     transform="translate(2.6852608,-863.75367)"
     style="fill:#6999b9;fill-opacity:1" /><g
     id="g3010"
     transform="translate(2.6852608,-863.75367)"
     style="fill:#6999b9;fill-opacity:1" /><g
     id="g3012"
     transform="translate(2.6852608,-863.75367)"
     style="fill:#6999b9;fill-opacity:1" /><g
     id="g3014"
     transform="translate(2.6852608,-863.75367)"
     style="fill:#6999b9;fill-opacity:1" /><g
     id="g3016"
     transform="translate(2.6852608,-863.75367)"
     style="fill:#6999b9;fill-opacity:1" /><g
     id="g3018"
     transform="translate(2.6852608,-863.75367)"
     style="fill:#6999b9;fill-opacity:1" /><g
     id="g3020"
     transform="translate(2.6852608,-863.75367)"
     style="fill:#6999b9;fill-opacity:1" /><g
     id="g3022"
     transform="translate(2.6852608,-863.75367)"
     style="fill:#6999b9;fill-opacity:1" /><g
     id="g3024"
     transform="translate(2.6852608,-863.75367)"
     style="fill:#6999b9;fill-opacity:1" /><g
     id="g3003"
     transform="matrix(0.87092675,0,0,0.91019723,2.983681,1.9164614)"><path
       style="fill:#6999b9;fill-opacity:1"
       sodipodi:nodetypes="ccscccccccc"
       inkscape:connector-curvature="0"
       id="path2990"
       d="m 4.4042865,24.531055 c -0.927527,0.120428 -1.693555,0.757608 -1.597504,1.795527 0.08443,0.914588 0.742341,1.600485 1.532426,1.665966 0.104881,0.0086 0.214159,0.0059 0.320847,-0.0089 l 8.0511725,-1.900405 c 0.401679,-0.05352 0.773174,-0.263443 1.052036,-0.595474 l 4.341364,-4.804453 -1.995455,0.579452 c -0.702168,-0.476478 0.58929,-3.322098 0.484789,-4.250188 l -4.852747,5.782274 z" /><circle
       transform="matrix(0.03670335,0,0,0.03736848,0.78473113,1.6798059)"
       style="fill:#6999b9;fill-opacity:1"
       d="m 849.66801,151.106 c 0,58.21082 -47.18919,105.4 -105.4,105.4 -58.21082,0 -105.40001,-47.18918 -105.40001,-105.4 0,-58.210811 47.18919,-105.399999 105.40001,-105.399999 58.21081,0 105.4,47.189188 105.4,105.399999 z"
       sodipodi:ry="105.4"
       sodipodi:rx="105.4"
       sodipodi:cy="151.106"
       sodipodi:cx="744.26801"
       id="circle2992"
       r="105.4"
       cy="151.106"
       cx="744.26801" /><path
       style="fill:#6999b9;fill-opacity:1"
       sodipodi:nodetypes="cscccsccccccccccccccccccccscccsccc"
       inkscape:connector-curvature="0"
       id="path2994"
       d="M 20.122846,5.7566401 C 19.73356,5.3082183 19.372366,5.1312096 18.976067,5.1312096 c -0.143826,0 -0.287581,0.023601 -0.441927,0.062937 l -6.344274,1.6874822 c -0.876769,0.2320779 -1.41686,1.2193927 -1.209941,2.1988402 0.17886,0.841774 0.845205,1.408201 1.585199,1.408201 0.126291,0 0.252511,-0.01573 0.3788,-0.05114 l 5.40441,-1.4357354 c 0.350708,0.4366211 2.107755,2.5725254 2.426899,2.9501434 l 0,0 c -2.23401,2.682663 -4.468019,5.361394 -6.702064,8.044059 -0.03507,0.0433 -0.0666,0.08654 -0.0982,0.129805 -0.652317,0.932245 -0.452378,2.395517 0.529603,2.950145 l 1.188866,0.680538 5.660427,3.241185 -3.55618,6.462781 c -0.487449,0.889016 -0.241953,2.0533 0.550612,2.603994 0.277059,0.192743 0.582175,0.283214 0.883784,0.283214 l 0,0 c 0.56464,0 1.118724,-0.318616 1.437903,-0.896844 l 4.517119,-8.209266 c 0.249002,-0.452356 0.315637,-0.999116 0.185875,-1.50654 -0.129762,-0.511359 -0.441892,-0.936179 -0.866249,-1.176124 l -4.639866,-2.647263 4.878383,-5.853084 3.682433,3.500837 c 0.305081,0.291041 0.680339,0.432687 1.052124,0.432687 0.399772,0 0.799614,-0.165207 1.111709,-0.487757 l 5.649088,-3.43272 c 0.659366,-0.688367 0.697908,-1.844823 0.08417,-2.584326 -0.322652,-0.385485 -0.75753,-0.582162 -1.192407,-0.582162 -0.396301,0 -0.796108,0.161275 -1.108238,0.487758 l -4.586442,2.315604 c -0.0035,0.0039 -7.929542,-8.3587399 -9.314837,-9.9518189 z" /><path
       style="fill:#6999b9;fill-opacity:1"
       d="m 6.1282846,4.5647414 h 9.2474574 c 0.242995,0 0.43991,-0.1575811 0.43991,-0.3519773 0,-0.1943962 -0.196915,-0.3519773 -0.43991,-0.3519773 H 6.1282846 c -0.2429952,0 -0.4399718,0.1575811 -0.4399718,0.3519773 0,0.1943962 0.1969766,0.3519773 0.4399718,0.3519773 z"
       id="path8"
       inkscape:connector-curvature="0" /><path
       style="fill:#6999b9;fill-opacity:1"
       d="m 2.7551137,12.997669 h 9.2474603 c 0.242995,0 0.43991,-0.157581 0.43991,-0.351977 0,-0.194396 -0.196915,-0.351977 -0.43991,-0.351977 H 2.7551137 c -0.2429952,0 -0.4399718,0.157581 -0.4399718,0.351977 0,0.194396 0.1969766,0.351977 0.4399718,0.351977 z"
       id="path8-5"
       inkscape:connector-curvature="0" /><path
       style="fill:#6999b9;fill-opacity:1"
       d="m 4.2308759,19.480481 h 9.2474561 c 0.242995,0 0.43991,-0.157581 0.43991,-0.351977 0,-0.194396 -0.196915,-0.351977 -0.43991,-0.351977 H 4.2308759 c -0.2429952,0 -0.4399718,0.157581 -0.4399718,0.351977 0,0.194396 0.1969766,0.351977 0.4399718,0.351977 z"
       id="path8-5-1"
       inkscape:connector-curvature="0" /><path
       style="fill:#6999b9;fill-opacity:1"
       d="m 6.8661655,32.551519 h 9.2474585 c 0.242995,0 0.43991,-0.157581 0.43991,-0.351977 0,-0.194396 -0.196915,-0.351977 -0.43991,-0.351977 H 6.8661655 c -0.2429952,0 -0.4399718,0.157581 -0.4399718,0.351977 0,0.194396 0.1969766,0.351977 0.4399718,0.351977 z"
       id="path8-5-1-9"
       inkscape:connector-curvature="0" /></g></svg>