<?xml version="1.0" encoding="UTF-8" standalone="no"?>
<svg
   xmlns:dc="http://purl.org/dc/elements/1.1/"
   xmlns:cc="http://creativecommons.org/ns#"
   xmlns:rdf="http://www.w3.org/1999/02/22-rdf-syntax-ns#"
   xmlns:svg="http://www.w3.org/2000/svg"
   xmlns="http://www.w3.org/2000/svg"
   xmlns:sodipodi="http://sodipodi.sourceforge.net/DTD/sodipodi-0.dtd"
   xmlns:inkscape="http://www.inkscape.org/namespaces/inkscape"
   version="1.1"
   viewBox="0 0 22 22"
   id="svg3245"
   inkscape:version="0.48.4 r9939"
   width="100%"
   height="100%"
   sodipodi:docname="indicator-fortune.svg">
  <metadata
     id="metadata3253">
    <rdf:RDF>
      <cc:Work
         rdf:about="">
        <dc:format>image/svg+xml</dc:format>
        <dc:type
           rdf:resource="http://purl.org/dc/dcmitype/StillImage" />
        <dc:title />
      </cc:Work>
    </rdf:RDF>
  </metadata>
  <defs
     id="defs3251" />
  <sodipodi:namedview
     pagecolor="#ffffff"
     bordercolor="#666666"
     borderopacity="1"
     objecttolerance="10"
     gridtolerance="10"
     guidetolerance="10"
     inkscape:pageopacity="0"
     inkscape:pageshadow="2"
     inkscape:window-width="1920"
     inkscape:window-height="1056"
     id="namedview3249"
     showgrid="true"
     inkscape:zoom="21.213203"
     inkscape:cx="8.760988"
     inkscape:cy="8.9155198"
     inkscape:window-x="0"
     inkscape:window-y="24"
     inkscape:window-maximized="1"
     inkscape:current-layer="svg3245"
     fit-margin-top="5"
     fit-margin-left="5"
     fit-margin-right="5"
     fit-margin-bottom="5"
     inkscape:showpageshadow="true"
     showborder="true"
     borderlayer="false">
    <inkscape:grid
       type="xygrid"
       id="grid3010"
       empspacing="5"
       visible="true"
       enabled="true"
       snapvisiblegridlinesonly="true" />
  </sodipodi:namedview>
  <path
     style="fill:#fec168;fill-opacity:1;stroke:#000000;stroke-width:0.42165208;stroke-miterlimit:4;stroke-opacity:1;stroke-dasharray:none"
     d="m 12.267851,19.676513 c -0.670557,0.11437 -2.148909,0.17147 -2.8163595,0.1087 -0.8760067,-0.0824 -1.74088,-0.3141 -2.5999012,-0.69657 -1.9258456,-0.85745 -3.084949,-2.03143 -3.8958162,-3.94583 -0.3707211,-0.87524 -0.5467172,-1.53094 -0.6526112,-2.43151 -0.2358931,-2.00609 0.1644441,-3.9633322 1.0989813,-5.3729222 1.2807214,-1.93175 3.277384,-3.42406 5.9910928,-4.47776 0.438297,-0.1702 0.966333,-0.38107 1.17341,-0.46864 l 0.376498,-0.1592 0.172588,0.26931 c 0.100684,0.1571 0.211951,0.41686 0.267041,0.62344 0.109478,0.41043 0.379681,2.67271 0.400632,3.35433 0.04007,1.30342 -0.307907,2.65907 -1.138788,4.4364922 -0.512013,1.09531 -0.8506925,1.57817 -1.7363651,2.47557 l -0.6785992,0.68758 0.245323,-0.0137 c 0.3063981,-0.0172 0.4976592,-0.14039 1.5964623,-1.02856 0.909073,-0.73482 1.772453,-1.31168 2.914579,-1.94734 0.701632,-0.3905 0.933343,-0.49229 1.824798,-0.801577 0.888865,-0.3083875 1.161286,-0.379167 2.103374,-0.546457 1.320526,-0.234598 1.964764,-0.3105982 2.297556,-0.2710082 0.266746,0.0317 0.499396,0.1936292 0.578124,0.4023182 0.08739,0.231689 -0.05361,0.978574 -0.380372,2.014634 -0.178637,0.56638 -0.416299,1.36719 -0.528154,1.77955 -0.231156,0.85224 -0.652859,1.80506 -1.033512,2.33519 -0.369761,0.51495 -1.447942,1.61114 -1.999866,2.03325 -0.785334,0.60064 -1.266862,0.86549 -2.238529,1.23123 -0.606276,0.22822 -1.021595,0.35503 -1.341571,0.40962 z"
     id="path4375"
     inkscape:connector-curvature="0" />
</svg>
