<?xml version="1.0" encoding="UTF-8" standalone="no"?>
<!-- Created with Inkscape (http://www.inkscape.org/) -->

<svg
  xmlns="http://www.w3.org/2000/svg"
  version="1.1"
  width="22"
  height="22"
  viewBox="0 0 22 22"
  id="svg3149">
  <g
    id="g3382">
    <path
      d="m 3.807031,8.7081013 c -4.8e-6,0.563289 0.1421826,0.9679761 0.4265625,1.2140624 0.2898382,0.2461003 0.765619,0.3691473 1.4273437,0.3691403 l 1.5749999,0 0,-3.1417964 -1.5749999,0 C 4.9992125,7.1495176 4.5234317,7.2698299 4.2335935,7.5104451 3.9492136,7.7510794 3.8070262,8.1502978 3.807031,8.7081013 M 0.07460933,17.108101 3.1261717,11.90732 C 2.710543,11.672169 2.1937467,11.262013 1.5757811,10.676851 0.95781045,10.086233 0.6488264,9.3834996 0.64882805,8.5686482 0.6488264,7.343658 1.0234354,6.4194402 1.7726561,5.795992 2.5273401,5.1725665 3.7113232,4.8608481 5.3246091,4.8608358 l 5.0695309,0 0,12.2472652 -3.1582029,0 0,-4.634766 -1.0746093,0 -2.7234374,4.634766 -3.36328107,0"
      id="path3205"
      style="fill:#78dc96;fill-opacity:1;stroke:none" />
    <path
      d="m 18.193109,8.7045155 c 5e-6,0.563289 -0.142183,0.9679761 -0.426563,1.2140624 -0.289838,0.2461011 -0.765618,0.3691471 -1.427343,0.3691411 l -1.575,0 0,-3.1417972 1.575,0 c 0.661725,9.9e-6 1.137505,0.1203223 1.427343,0.3609375 0.28438,0.2406343 0.426568,0.6398526 0.426563,1.1976562 m 3.732422,8.3999995 -3.051563,-5.200781 c 0.415629,-0.235151 0.932425,-0.645307 1.550391,-1.230469 0.617971,-0.590618 0.926955,-1.2933512 0.926953,-2.1082027 2e-6,-1.2249901 -0.374607,-2.1492079 -1.123828,-2.7726561 C 19.4728,5.1689807 18.288817,4.8572623 16.675531,4.85725 l -5.069531,0 0,12.247265 3.158203,0 0,-4.634765 1.074609,0 2.723438,4.634765 3.363281,0"
      id="path3208"
      style="fill:#6496dc;fill-opacity:1;stroke:none" />
  </g>
</svg>
